<svg width="248" height="50" viewBox="0 0 248 50" fill="none" xmlns="http://www.w3.org/2000/svg">
<path d="M175.612 7.86279V7.86479C170.327 7.86479 167.373 8.15779 165.861 8.71278C165.105 8.99078 164.731 9.30777 164.511 9.67277C164.292 10.0398 164.215 10.5088 164.215 11.1348C164.215 11.8847 164.375 12.5017 164.674 12.9057C164.972 13.3097 165.396 13.5557 166.156 13.5557C167.594 13.5557 168.483 13.3757 169.736 13.1927C170.99 13.0097 172.578 12.8237 175.309 12.8237C177.505 12.8237 178.962 12.9837 179.968 13.5487C180.47 13.8307 180.849 14.2357 181.075 14.7287C181.301 15.2207 181.385 15.7917 181.385 16.4357V19.6756H171.996C167.71 19.6756 165.332 20.3956 164.023 21.7866C162.715 23.1766 162.348 25.3806 162.348 28.5995C162.348 30.5595 162.518 32.0815 162.908 33.2355C163.298 34.3905 163.891 35.1834 164.778 35.7754C166.55 36.9574 169.672 37.2884 174.654 37.2884C179.303 37.2884 182.407 36.9604 184.257 35.7964C185.182 35.2144 185.817 34.4415 186.249 33.3235C186.68 32.2065 186.892 30.7375 186.892 28.8435V17.3357C186.892 13.8057 186.278 11.4907 184.634 10.0268C182.989 8.56378 180.174 7.86279 175.612 7.86279ZM207.546 7.86279V7.86479C202.91 7.86479 199.846 8.38079 198.001 9.73177C196.155 11.0838 195.366 13.3107 195.366 17.0997V27.6995C195.366 31.2405 196.171 33.5715 198.038 35.0734C199.905 36.5764 202.954 37.2884 207.546 37.2884C211.728 37.2884 214.76 36.8014 215.563 36.5874C216.281 36.3944 216.726 36.1094 217.011 35.7304C217.295 35.3504 217.446 34.8335 217.446 34.0835C217.446 33.3015 217.278 32.6635 216.979 32.2535C216.681 31.8435 216.265 31.6035 215.505 31.6035C214.16 31.6035 213.365 31.7765 212.323 31.9585C211.282 32.1415 210.014 32.3285 207.849 32.3285C205.573 32.3285 203.869 31.9985 202.681 31.2865C201.492 30.5745 200.874 29.4255 200.874 28.0605V17.2167C200.874 15.5597 201.424 14.3557 202.608 13.7027C203.792 13.0497 205.475 12.8907 207.848 12.8907C210.044 12.8907 211.34 13.0767 212.39 13.2597C213.44 13.4417 214.222 13.6147 215.505 13.6147C216.26 13.6147 216.678 13.3627 216.979 12.9427C217.281 12.5227 217.446 11.8837 217.446 11.1348C217.446 10.5228 217.397 10.0348 217.231 9.67177C217.066 9.30777 216.789 9.01778 216.175 8.74178C214.945 8.19179 212.377 7.86279 207.545 7.86279H207.546ZM237.156 7.86279C232.511 7.86279 229.206 8.26379 227.146 9.47977C225.086 10.6968 224.126 12.6907 224.126 16.3087V17.0327C224.126 20.1296 225.186 21.9156 226.79 23.0696C228.395 24.2246 230.609 24.7216 232.866 24.9746C235.123 25.2266 237.406 25.2326 239.185 25.5136C240.074 25.6536 240.845 25.8566 241.445 26.2456C242.043 26.6356 242.448 27.2795 242.448 28.0605V28.6655C242.448 29.4605 242.255 30.1395 241.864 30.6735C241.474 31.2065 240.9 31.5705 240.212 31.8175C238.835 32.3125 236.955 32.3865 234.563 32.3865C231.534 32.3865 228.391 31.6635 225.95 31.6635C225.19 31.6635 224.788 31.8985 224.503 32.3065C224.218 32.7135 224.067 33.3565 224.067 34.1445C224.067 34.7665 224.128 35.2344 224.311 35.5834C224.495 35.9324 224.804 36.2204 225.491 36.4834C226.866 37.0104 229.67 37.2884 234.866 37.2884C239.474 37.2884 242.768 36.8024 244.839 35.4644C246.909 34.1265 247.888 31.9495 247.888 28.1795V27.3955C247.888 24.5506 246.841 22.9556 245.231 21.9116C243.621 20.8686 241.39 20.4316 239.118 20.1856C236.846 19.9396 234.55 19.8846 232.755 19.5056C231.857 19.3156 231.077 19.0497 230.481 18.5817C229.886 18.1137 229.515 17.4067 229.515 16.5517V16.0137C229.515 15.3337 229.648 14.7477 229.972 14.2787C230.295 13.8097 230.788 13.4887 231.39 13.2827C232.593 12.8697 234.279 12.8237 236.667 12.8237C239.873 12.8237 242.552 13.5567 244.868 13.5567C245.628 13.5567 246.031 13.3147 246.315 12.9137C246.6 12.5127 246.743 11.8897 246.743 11.1338C246.743 10.5548 246.717 10.0808 246.581 9.72377C246.445 9.36777 246.224 9.08378 245.659 8.80278C244.529 8.24079 242.044 7.86279 237.155 7.86279H237.156ZM173.51 24.3336H181.386V29.2045C181.386 29.8215 181.269 30.3715 180.979 30.8295C180.689 31.2875 180.238 31.6295 179.673 31.8625C178.543 32.3295 176.925 32.4445 174.587 32.4445C172.038 32.4445 170.384 32.3225 169.25 31.7295C168.702 31.4549 168.265 31.0015 168.01 30.4445C167.76 29.8915 167.67 29.2425 167.67 28.4815C167.67 27.6435 167.732 26.9605 167.922 26.3846C168.112 25.8086 168.452 25.3396 168.939 25.0266C169.915 24.4016 171.326 24.3336 173.51 24.3336Z" fill="url(#paint0_linear_726_816)"/>
<path fill-rule="evenodd" clip-rule="evenodd" d="M18.071 34.8494L15.4899 36.363L0 27.2722V9.09074L2.58104 7.5753L18.071 16.6679V34.8494Z" fill="#E47E2E"/>
<path fill-rule="evenodd" clip-rule="evenodd" d="M15.4899 12.1216V9.09074L30.9799 0L46.4698 9.09074L46.468 12.1216L30.978 21.2124L15.4899 12.1216Z" fill="#00B27A"/>
<path fill-rule="evenodd" clip-rule="evenodd" d="M36.1438 21.2124L38.7248 22.7278V40.9093L23.2349 50L20.6539 48.4846V30.3031L36.1438 21.2124Z" fill="#6D28AA"/>
<path d="M95.3705 37.8859V23.3781L94.944 17.5312H95.1572L110.92 37.8859H118.162V7.56965H111.346V22.0775L111.773 27.9244H111.559L95.7951 7.56965H88.5526V37.8859H95.3705ZM122.319 27.4927C122.319 23.8116 124.663 21.4762 128.922 20.7807L140.85 18.8318C142.554 18.5283 143.194 17.9666 143.194 16.4493V16.0176C143.194 14.2854 142.554 13.6352 140.85 13.6352H125.301L123.17 11.4694V7.57153H142.981C147.242 7.57153 150.01 10.3856 150.01 14.7171V17.9647C150.01 21.6459 147.668 23.985 143.407 24.6767L142.847 24.7691L151 34.8569V37.8878H144.471L135.347 25.9962L131.477 26.6276C129.781 26.9047 129.133 27.4871 129.133 28.978V37.8878H122.317V27.4927H122.319ZM56.7921 37.8859H77.4552C81.7162 37.8859 84.4845 35.0699 84.4845 30.7404V27.4927C84.4845 23.8116 82.1408 21.4725 77.8817 20.7807L65.9518 18.8318C64.2478 18.5283 63.6081 17.9666 63.6081 16.4493V16.0176C63.6081 14.2854 64.2478 13.6352 65.9518 13.6352H81.5011L83.6316 11.4694V7.57153H63.8214C59.5604 7.57153 56.7921 10.3856 56.7921 14.7171V17.9647C56.7921 21.6459 59.1358 23.985 63.3949 24.6767L75.3248 26.6257C77.0288 26.9292 77.6685 27.4927 77.6685 29.0082V29.4417C77.6685 31.1739 77.0288 31.8242 75.3248 31.8242H56.7921V37.8878V37.8859Z" fill="#4E4E4E"/>
<defs>
<linearGradient id="paint0_linear_726_816" x1="116.412" y1="-3.22513" x2="116.412" y2="51.915" gradientUnits="userSpaceOnUse">
<stop offset="1" stop-color="#4E4E4E"/>
</linearGradient>
</defs>
</svg>
